<svg width="193" height="56" viewBox="0 0 193 56" fill="none" xmlns="http://www.w3.org/2000/svg">
<line x1="8" y1="55.5" x2="193" y2="55.5" stroke="#F9F2F2"/>
<path d="M3.00293 36.0098H14.9902V38.0117H3.00293V36.0098ZM33.9111 49.2422C34.5133 49.2422 35.1237 49.0713 35.7422 48.7295C36.377 48.3714 36.9873 47.8913 37.5732 47.2891C38.1755 46.6706 38.7451 45.9463 39.2822 45.1162C39.8193 44.2861 40.3076 43.3991 40.7471 42.4551C41.2028 41.4948 41.5853 40.502 41.8945 39.4766C42.2201 38.4349 42.4642 37.3932 42.627 36.3516C42.6595 34.8379 42.7327 33.3405 42.8467 31.8594C42.9769 30.362 43.1152 29.0029 43.2617 27.7822C43.4408 26.3662 43.6279 25.0072 43.8232 23.7051L47.7051 22.6553C47.5098 24.0876 47.3307 25.707 47.168 27.5137C47.0378 29.0599 46.9157 30.891 46.8018 33.0068C46.7041 35.1227 46.6553 37.4502 46.6553 39.9893C46.6553 42.04 46.7855 43.7572 47.0459 45.1406C47.3226 46.5078 47.6888 47.6146 48.1445 48.4609C48.6165 49.291 49.1536 49.8851 49.7559 50.2432C50.3743 50.585 51.0254 50.7559 51.709 50.7559C52.5879 50.7559 53.4017 50.4873 54.1504 49.9502C54.9154 49.4131 55.599 48.6644 56.2012 47.7041C56.8197 46.7438 57.3649 45.6126 57.8369 44.3105C58.3089 42.9922 58.7077 41.5599 59.0332 40.0137C59.3587 38.4674 59.6029 36.8398 59.7656 35.1309C59.9284 33.4219 60.0098 31.6966 60.0098 29.9551C60.0098 27.6764 59.9121 25.6663 59.7168 23.9248C59.5378 22.167 59.2855 20.6452 58.96 19.3594C58.6507 18.0736 58.2845 16.9993 57.8613 16.1367C57.4382 15.2741 56.9906 14.5824 56.5186 14.0615C56.0628 13.5244 55.5908 13.1501 55.1025 12.9385C54.6143 12.7106 54.1504 12.5967 53.7109 12.5967C53.2389 12.5967 52.8076 12.6862 52.417 12.8652C52.0264 13.028 51.6683 13.2396 51.3428 13.5C51.0335 13.7604 50.7487 14.0371 50.4883 14.3301C50.2441 14.6068 50.0407 14.8672 49.8779 15.1113L48.7549 14.4521C48.9502 14.1429 49.2432 13.7523 49.6338 13.2803C50.0407 12.792 50.5208 12.3281 51.0742 11.8887C51.6439 11.4329 52.2786 11.0505 52.9785 10.7412C53.6947 10.4157 54.4596 10.2529 55.2734 10.2529C56.4616 10.2529 57.5114 10.6517 58.4229 11.4492C59.3506 12.2467 60.1237 13.3779 60.7422 14.8428C61.377 16.3076 61.8571 18.0654 62.1826 20.1162C62.5081 22.167 62.6709 24.4456 62.6709 26.9521C62.6709 29.0355 62.5651 31.1107 62.3535 33.1777C62.1582 35.2285 61.8571 37.1898 61.4502 39.0615C61.0433 40.9333 60.5306 42.6748 59.9121 44.2861C59.2936 45.8975 58.5693 47.2972 57.7393 48.4854C56.9092 49.6572 55.9733 50.5768 54.9316 51.2441C53.89 51.9115 52.7344 52.2451 51.4648 52.2451C50.3418 52.2451 49.3001 52.0173 48.3398 51.5615C47.3958 51.1058 46.5576 50.4303 45.8252 49.5352C45.0928 48.6237 44.4743 47.5007 43.9697 46.166C43.4652 44.8151 43.099 43.2607 42.8711 41.5029C42.3991 42.7399 41.8213 43.9362 41.1377 45.0918C40.4541 46.2311 39.6891 47.2402 38.8428 48.1191C37.9964 48.998 37.085 49.6979 36.1084 50.2188C35.1318 50.7396 34.1146 51 33.0566 51C32.0801 51 31.1361 50.8454 30.2246 50.5361C29.3132 50.2106 28.4993 49.6654 27.7832 48.9004C27.0833 48.1354 26.5218 47.1182 26.0986 45.8486C25.6755 44.5628 25.4639 42.9596 25.4639 41.0391C25.4639 39.5579 25.6022 38.0605 25.8789 36.5469C26.1556 35.0169 26.5055 33.4951 26.9287 31.9814C27.3519 30.4678 27.8076 28.9704 28.2959 27.4893C28.7842 26.0081 29.2399 24.5677 29.6631 23.168C30.0863 21.7682 30.4362 20.4255 30.7129 19.1396C30.9896 17.8538 31.1279 16.6413 31.1279 15.502C31.1279 14.0208 30.8268 12.9466 30.2246 12.2793C29.6387 11.5957 28.833 11.2539 27.8076 11.2539C26.6683 11.2539 25.5778 11.5143 24.5361 12.0352C23.5107 12.5397 22.5505 13.2233 21.6553 14.0859C20.7764 14.9486 19.9707 15.9495 19.2383 17.0889C18.5221 18.2119 17.9118 19.4001 17.4072 20.6533C16.9027 21.9066 16.512 23.1761 16.2354 24.4619C15.9587 25.7477 15.8203 26.9766 15.8203 28.1484C15.8203 31.3874 16.7887 33.0068 18.7256 33.0068C19.3441 33.0068 19.9626 32.8197 20.5811 32.4453C21.1995 32.0547 21.7855 31.5176 22.3389 30.834C22.8923 30.1504 23.3968 29.3366 23.8525 28.3926C24.3083 27.4323 24.6989 26.3825 25.0244 25.2432L26.0742 25.7559C25.9115 26.2604 25.6999 26.8219 25.4395 27.4404C25.1953 28.0426 24.9023 28.6611 24.5605 29.2959C24.2188 29.9307 23.8281 30.5492 23.3887 31.1514C22.9492 31.7373 22.4609 32.2663 21.9238 32.7383C21.3867 33.194 20.7926 33.5602 20.1416 33.8369C19.5068 34.1136 18.8151 34.252 18.0664 34.252C16.4876 34.252 15.2262 33.723 14.2822 32.665C13.3382 31.5908 12.8662 29.9876 12.8662 27.8555C12.8662 26.4395 13.0859 25.0153 13.5254 23.583C13.9486 22.1507 14.5345 20.7754 15.2832 19.457C16.0319 18.1387 16.9108 16.9017 17.9199 15.7461C18.929 14.5905 20.0114 13.5895 21.167 12.7432C22.3226 11.8968 23.5189 11.2295 24.7559 10.7412C26.0091 10.2529 27.2461 10.0088 28.4668 10.0088C29.4759 10.0088 30.3874 10.139 31.2012 10.3994C32.015 10.6598 32.6986 11.0667 33.252 11.6201C33.8216 12.1735 34.2529 12.8734 34.5459 13.7197C34.8551 14.5661 35.0098 15.5752 35.0098 16.7471C35.0098 17.9027 34.8796 19.1559 34.6191 20.5068C34.375 21.8577 34.0576 23.2738 33.667 24.7549C33.2926 26.2197 32.8776 27.7334 32.4219 29.2959C31.9824 30.8421 31.5674 32.4046 31.1768 33.9834C30.8024 35.5459 30.485 37.1003 30.2246 38.6465C29.9805 40.1764 29.8584 41.6576 29.8584 43.0898C29.8584 44.1966 29.9479 45.1406 30.127 45.9219C30.306 46.7031 30.5664 47.3379 30.9082 47.8262C31.25 48.3145 31.6732 48.6725 32.1777 48.9004C32.6823 49.1283 33.2601 49.2422 33.9111 49.2422ZM72.29 48.2412C72.8597 48.2412 73.4375 48.0947 74.0234 47.8018C74.6257 47.5088 75.2279 47.0531 75.8301 46.4346C76.4486 45.8161 77.0833 45.0186 77.7344 44.042C78.3854 43.0492 79.0527 41.8691 79.7363 40.502L79.9805 39.9893L80.9814 40.7461L80.7373 41.2588C79.8584 43.0003 78.9795 44.4896 78.1006 45.7266C77.238 46.9635 76.3835 47.9727 75.5371 48.7539C74.707 49.5352 73.8851 50.1048 73.0713 50.4629C72.2575 50.821 71.4762 51 70.7275 51C69.6696 51 68.7256 50.7803 67.8955 50.3408C67.0654 49.9014 66.3656 49.3073 65.7959 48.5586C65.2262 47.7936 64.7949 46.9147 64.502 45.9219C64.1927 44.9128 64.0381 43.8548 64.0381 42.748C64.0381 40.9902 64.2822 39.3952 64.7705 37.9629C65.2425 36.5143 65.8773 35.2773 66.6748 34.252C67.4886 33.2266 68.4082 32.429 69.4336 31.8594C70.459 31.2897 71.5251 31.0049 72.6318 31.0049C73.7549 31.0049 74.6094 31.2897 75.1953 31.8594C75.7975 32.429 76.0986 33.1452 76.0986 34.0078C76.0986 34.8379 75.8626 35.6191 75.3906 36.3516C74.9186 37.0677 74.2757 37.7757 73.4619 38.4756C72.6644 39.1592 71.7367 39.8428 70.6787 40.5264C69.6208 41.1937 68.5059 41.8854 67.334 42.6016C67.4479 43.4479 67.6432 44.221 67.9199 44.9209C68.1966 45.6045 68.5465 46.1986 68.9697 46.7031C69.3929 47.1914 69.8812 47.5739 70.4346 47.8506C70.988 48.111 71.6064 48.2412 72.29 48.2412ZM73.0469 34.7402C73.0469 34.0892 72.8678 33.5765 72.5098 33.2021C72.168 32.8278 71.7448 32.6406 71.2402 32.6406C70.8171 32.6406 70.3695 32.7952 69.8975 33.1045C69.4255 33.3975 68.9941 33.8776 68.6035 34.5449C68.2129 35.196 67.8874 36.0342 67.627 37.0596C67.3665 38.085 67.2363 39.3301 67.2363 40.7949V41.3564C67.7897 41.0635 68.4001 40.681 69.0674 40.209C69.751 39.7207 70.3857 39.1836 70.9717 38.5977C71.5576 38.0117 72.0459 37.3932 72.4365 36.7422C72.8434 36.0749 73.0469 35.4076 73.0469 34.7402ZM85.2295 47.8994C85.5225 47.8994 85.8561 47.7122 86.2305 47.3379C86.6211 46.9473 87.0361 46.4183 87.4756 45.751C87.915 45.0837 88.3789 44.3024 88.8672 43.4072C89.3555 42.512 89.86 41.5436 90.3809 40.502L90.625 39.9893L91.626 40.7461L91.3818 41.2588C90.5192 42.984 89.7461 44.4652 89.0625 45.7021C88.3952 46.9229 87.7686 47.932 87.1826 48.7295C86.5967 49.5107 86.0352 50.0885 85.498 50.4629C84.9772 50.821 84.4401 51 83.8867 51C83.1543 51 82.5195 50.764 81.9824 50.292C81.4616 49.8037 81.0221 48.998 80.6641 47.875C80.3223 46.7357 80.07 45.2383 79.9072 43.3828C79.7282 41.5273 79.6387 39.2324 79.6387 36.498C79.6387 32.6243 79.8014 29.304 80.127 26.5371C80.4525 23.7539 80.8919 21.4753 81.4453 19.7012C82.015 17.9108 82.666 16.6006 83.3984 15.7705C84.1471 14.9242 84.9284 14.501 85.7422 14.501C86.2305 14.501 86.6374 14.7044 86.9629 15.1113C87.3047 15.502 87.4756 16.2181 87.4756 17.2598C87.4756 18.0736 87.4105 19.0013 87.2803 20.043C87.1501 21.0846 86.9792 22.1995 86.7676 23.3877C86.556 24.5758 86.3037 25.8128 86.0107 27.0986C85.7178 28.3682 85.4085 29.6377 85.083 30.9072C84.7575 32.1605 84.4238 33.3975 84.082 34.6182C83.7402 35.8226 83.4066 36.9538 83.0811 38.0117C83.1787 40.0137 83.2845 41.6576 83.3984 42.9434C83.5286 44.2129 83.6751 45.2139 83.8379 45.9463C84.0169 46.6787 84.2204 47.1914 84.4482 47.4844C84.6761 47.7611 84.9365 47.8994 85.2295 47.8994ZM85.8887 17.8457C85.8887 17.5039 85.848 17.2354 85.7666 17.04C85.6852 16.8447 85.555 16.7471 85.376 16.7471C85.1969 16.7471 85.0179 16.9993 84.8389 17.5039C84.6598 18.0085 84.4808 18.6921 84.3018 19.5547C84.139 20.4173 83.9844 21.4183 83.8379 22.5576C83.7077 23.6969 83.5856 24.9095 83.4717 26.1953C83.3577 27.4648 83.2682 28.7669 83.2031 30.1016C83.138 31.4362 83.0973 32.722 83.0811 33.959C83.4717 32.5267 83.8298 31.0618 84.1553 29.5645C84.4971 28.0508 84.7982 26.5859 85.0586 25.1699C85.319 23.7539 85.5225 22.4193 85.6689 21.166C85.8154 19.8965 85.8887 18.7897 85.8887 17.8457ZM98.877 37.0596C99.0723 36.7503 99.235 36.3678 99.3652 35.9121C99.5117 35.4564 99.585 35.0007 99.585 34.5449C99.585 33.9915 99.4466 33.5114 99.1699 33.1045C98.8932 32.6976 98.3968 32.4941 97.6807 32.4941C97.2087 32.4941 96.7285 32.665 96.2402 33.0068C95.752 33.3486 95.2962 33.8613 94.873 34.5449C94.4661 35.2285 94.1325 36.0911 93.8721 37.1328C93.6117 38.1745 93.4814 39.3952 93.4814 40.7949C93.4814 41.9017 93.5954 42.9108 93.8232 43.8223C94.0511 44.7337 94.3848 45.515 94.8242 46.166C95.2637 46.8171 95.7926 47.3298 96.4111 47.7041C97.0459 48.0622 97.7539 48.2412 98.5352 48.2412C99.1048 48.2412 99.6826 48.0947 100.269 47.8018C100.871 47.5088 101.473 47.0531 102.075 46.4346C102.694 45.8161 103.328 45.0186 103.979 44.042C104.631 43.0492 105.298 41.8691 105.981 40.502L106.226 39.9893L107.227 40.7461L106.982 41.2588C106.104 43.0003 105.225 44.4896 104.346 45.7266C103.483 46.9635 102.629 47.9727 101.782 48.7539C100.936 49.5352 100.106 50.1048 99.292 50.4629C98.4945 50.821 97.7214 51 96.9727 51C95.9147 51 94.9707 50.7803 94.1406 50.3408C93.3105 49.9014 92.6107 49.3073 92.041 48.5586C91.4714 47.7936 91.0319 46.9147 90.7227 45.9219C90.4297 44.9128 90.2832 43.8548 90.2832 42.748C90.2832 40.9902 90.5192 39.3952 90.9912 37.9629C91.4795 36.5143 92.1061 35.2773 92.8711 34.252C93.6361 33.2266 94.4987 32.429 95.459 31.8594C96.4193 31.2897 97.3877 31.0049 98.3643 31.0049C99.113 31.0049 99.7396 31.1107 100.244 31.3223C100.749 31.5339 101.156 31.8024 101.465 32.1279C101.774 32.4535 101.994 32.8034 102.124 33.1777C102.254 33.5521 102.319 33.9102 102.319 34.252C102.319 34.5938 102.246 34.9518 102.1 35.3262C101.953 35.6842 101.733 36.026 101.44 36.3516C101.164 36.6608 100.83 36.9456 100.439 37.2061C100.049 37.4502 99.6094 37.6292 99.1211 37.7432L98.877 37.0596ZM126.709 40.7461L126.44 41.2588C125.887 42.3656 125.146 43.2526 124.219 43.9199C123.307 44.571 122.314 44.9941 121.24 45.1895C120.947 46.0195 120.565 46.7926 120.093 47.5088C119.637 48.2087 119.108 48.819 118.506 49.3398C117.92 49.8607 117.253 50.2676 116.504 50.5605C115.771 50.8535 114.974 51 114.111 51C112.858 51 111.727 50.7396 110.718 50.2188C109.725 49.6816 108.879 48.9655 108.179 48.0703C107.479 47.1589 106.942 46.1009 106.567 44.8965C106.193 43.6758 106.006 42.3737 106.006 40.9902C106.006 39.7858 106.144 38.6953 106.421 37.7188C106.698 36.7259 107.048 35.847 107.471 35.082C107.894 34.3008 108.366 33.6253 108.887 33.0557C109.408 32.4697 109.92 31.9896 110.425 31.6152C110.929 31.2409 111.385 30.9642 111.792 30.7852C112.215 30.5898 112.533 30.4922 112.744 30.4922L113.062 31.3467C112.394 31.835 111.8 32.5186 111.279 33.3975C110.824 34.1462 110.409 35.139 110.034 36.376C109.676 37.613 109.497 39.151 109.497 40.9902C109.497 42.1133 109.603 43.2038 109.814 44.2617C110.026 45.3197 110.335 46.2555 110.742 47.0693C111.149 47.8831 111.646 48.5342 112.231 49.0225C112.834 49.5107 113.509 49.7549 114.258 49.7549C115.283 49.7549 116.13 49.348 116.797 48.5342C117.48 47.7041 117.985 46.5729 118.311 45.1406C117.464 44.9616 116.659 44.6279 115.894 44.1396C115.129 43.6514 114.453 43.0492 113.867 42.333C113.281 41.6006 112.809 40.7624 112.451 39.8184C112.109 38.8743 111.938 37.849 111.938 36.7422C111.938 35.8307 112.052 35.0332 112.28 34.3496C112.524 33.6497 112.842 33.0719 113.232 32.6162C113.623 32.1442 114.071 31.7943 114.575 31.5664C115.096 31.3223 115.641 31.2002 116.211 31.2002C116.878 31.2002 117.562 31.3955 118.262 31.7861C118.962 32.1605 119.596 32.7301 120.166 33.4951C120.736 34.2438 121.2 35.1878 121.558 36.3271C121.916 37.4665 122.095 38.793 122.095 40.3066C122.095 40.8763 122.062 41.4378 121.997 41.9912C121.932 42.5446 121.834 43.0817 121.704 43.6025C122.485 43.3747 123.193 43.0085 123.828 42.5039C124.479 41.9993 125.016 41.332 125.439 40.502L125.708 39.9893L126.709 40.7461ZM113.55 36.5469C113.55 37.5072 113.68 38.3942 113.94 39.208C114.217 40.0055 114.583 40.7135 115.039 41.332C115.495 41.9342 116.024 42.4388 116.626 42.8457C117.228 43.2526 117.871 43.5374 118.555 43.7002C118.636 43.2445 118.685 42.7725 118.701 42.2842C118.734 41.7796 118.75 41.2669 118.75 40.7461C118.75 39.5905 118.66 38.5488 118.481 37.6211C118.302 36.6771 118.066 35.8796 117.773 35.2285C117.48 34.5612 117.139 34.0485 116.748 33.6904C116.357 33.3324 115.959 33.1533 115.552 33.1533C114.998 33.1533 114.526 33.4544 114.136 34.0566C113.745 34.6426 113.55 35.4727 113.55 36.5469ZM133.691 32.7383C133.219 32.7383 132.764 32.9092 132.324 33.251C131.901 33.5765 131.494 34.0322 131.104 34.6182C130.713 35.1878 130.33 35.8633 129.956 36.6445C129.598 37.4095 129.24 38.2314 128.882 39.1104V39.4033C128.833 40.8356 128.784 42.3574 128.735 43.9688C128.703 45.5801 128.687 47.3379 128.687 49.2422C128.687 49.5677 128.573 49.8444 128.345 50.0723C128.133 50.2839 127.881 50.4629 127.588 50.6094C127.295 50.7396 126.994 50.8372 126.685 50.9023C126.375 50.9674 126.123 51 125.928 51C125.684 51 125.456 50.9268 125.244 50.7803C125.033 50.6338 124.927 50.3083 124.927 49.8037C124.927 49.5596 124.951 49.2585 125 48.9004C125.049 48.526 125.114 48.1273 125.195 47.7041C125.26 47.2809 125.342 46.8496 125.439 46.4102C125.521 45.9544 125.602 45.5312 125.684 45.1406C125.684 43.7572 125.684 42.512 125.684 41.4053C125.667 40.2985 125.659 39.3138 125.659 38.4512C125.659 37.5885 125.659 36.8317 125.659 36.1807C125.643 35.5296 125.635 34.9681 125.635 34.4961C125.635 33.7148 125.651 33.1452 125.684 32.7871C125.7 32.4128 125.732 32.1523 125.781 32.0059C125.863 31.778 126.009 31.599 126.221 31.4688C126.449 31.3385 126.685 31.2409 126.929 31.1758C127.173 31.0944 127.417 31.0456 127.661 31.0293C127.905 31.013 128.092 31.0049 128.223 31.0049C128.532 31.0049 128.735 31.0944 128.833 31.2734C128.931 31.4525 128.979 31.7292 128.979 32.1035C128.979 32.9499 128.979 33.7148 128.979 34.3984C128.979 35.082 128.963 35.7656 128.931 36.4492C129.24 35.7168 129.598 35.0251 130.005 34.374C130.428 33.7067 130.892 33.1289 131.396 32.6406C131.901 32.1361 132.43 31.7373 132.983 31.4443C133.553 31.1514 134.139 31.0049 134.741 31.0049C135.474 31.0049 136.076 31.1595 136.548 31.4688C137.036 31.7617 137.419 32.1768 137.695 32.7139C137.988 33.251 138.2 33.8857 138.33 34.6182C138.477 35.3343 138.574 36.1156 138.623 36.9619C139.079 36.1318 139.567 35.3587 140.088 34.6426C140.625 33.9102 141.187 33.2754 141.772 32.7383C142.375 32.2012 143.001 31.778 143.652 31.4688C144.32 31.1595 145.011 31.0049 145.728 31.0049C146.965 31.0049 147.868 31.3955 148.438 32.1768C149.007 32.9417 149.292 33.9834 149.292 35.3018C149.292 36.1318 149.227 37.0596 149.097 38.085C148.966 39.1104 148.828 40.152 148.682 41.21C148.535 42.2516 148.397 43.277 148.267 44.2861C148.136 45.2952 148.071 46.2148 148.071 47.0449C148.071 48.054 148.324 48.5586 148.828 48.5586C149.089 48.5586 149.373 48.404 149.683 48.0947C149.992 47.7692 150.342 47.2809 150.732 46.6299C151.139 45.9626 151.603 45.1243 152.124 44.1152C152.661 43.1061 153.28 41.9017 153.979 40.502L154.224 39.9893L155.225 40.7461L154.98 41.2588C154.02 43.1794 153.198 44.7663 152.515 46.0195C151.847 47.2728 151.245 48.2738 150.708 49.0225C150.171 49.7549 149.658 50.2676 149.17 50.5605C148.698 50.8535 148.169 51 147.583 51C147.241 51 146.908 50.9512 146.582 50.8535C146.257 50.7559 145.972 50.585 145.728 50.3408C145.483 50.0967 145.288 49.7712 145.142 49.3643C144.995 48.9411 144.922 48.404 144.922 47.7529C144.922 46.7764 144.987 45.6777 145.117 44.457C145.247 43.2363 145.394 42.0156 145.557 40.7949C145.719 39.5742 145.866 38.4268 145.996 37.3525C146.126 36.262 146.191 35.375 146.191 34.6914C146.191 34.0892 146.061 33.609 145.801 33.251C145.54 32.8766 145.15 32.6895 144.629 32.6895C144.108 32.6895 143.563 32.8929 142.993 33.2998C142.44 33.7067 141.895 34.2357 141.357 34.8867C140.837 35.5215 140.34 36.2376 139.868 37.0352C139.412 37.8327 139.014 38.6221 138.672 39.4033C138.672 41.1123 138.656 42.6097 138.623 43.8955C138.59 45.165 138.542 46.2393 138.477 47.1182C138.428 47.9971 138.354 48.6969 138.257 49.2178C138.159 49.7223 138.053 50.0641 137.939 50.2432C137.858 50.3571 137.72 50.4629 137.524 50.5605C137.329 50.6582 137.109 50.7396 136.865 50.8047C136.637 50.8698 136.41 50.9186 136.182 50.9512C135.97 50.9837 135.807 51 135.693 51C135.433 51 135.205 50.9268 135.01 50.7803C134.831 50.6175 134.741 50.3083 134.741 49.8525C134.741 49.641 134.757 49.3561 134.79 48.998C134.839 48.64 134.896 48.2412 134.961 47.8018C135.026 47.3623 135.099 46.8903 135.181 46.3857C135.262 45.8812 135.343 45.3685 135.425 44.8477C135.441 44.3594 135.457 43.8141 135.474 43.2119C135.49 42.6097 135.506 42.0156 135.522 41.4297C135.539 40.8275 135.547 40.2578 135.547 39.7207C135.563 39.1673 135.571 38.6953 135.571 38.3047C135.571 37.4746 135.547 36.7178 135.498 36.0342C135.449 35.3506 135.352 34.7646 135.205 34.2764C135.075 33.7881 134.888 33.4137 134.644 33.1533C134.399 32.8766 134.082 32.7383 133.691 32.7383ZM161.45 48.2412C162.02 48.2412 162.598 48.0947 163.184 47.8018C163.786 47.5088 164.388 47.0531 164.99 46.4346C165.609 45.8161 166.243 45.0186 166.895 44.042C167.546 43.0492 168.213 41.8691 168.896 40.502L169.141 39.9893L170.142 40.7461L169.897 41.2588C169.019 43.0003 168.14 44.4896 167.261 45.7266C166.398 46.9635 165.544 47.9727 164.697 48.7539C163.867 49.5352 163.045 50.1048 162.231 50.4629C161.418 50.821 160.636 51 159.888 51C158.83 51 157.886 50.7803 157.056 50.3408C156.226 49.9014 155.526 49.3073 154.956 48.5586C154.386 47.7936 153.955 46.9147 153.662 45.9219C153.353 44.9128 153.198 43.8548 153.198 42.748C153.198 40.9902 153.442 39.3952 153.931 37.9629C154.403 36.5143 155.037 35.2773 155.835 34.252C156.649 33.2266 157.568 32.429 158.594 31.8594C159.619 31.2897 160.685 31.0049 161.792 31.0049C162.915 31.0049 163.77 31.2897 164.355 31.8594C164.958 32.429 165.259 33.1452 165.259 34.0078C165.259 34.8379 165.023 35.6191 164.551 36.3516C164.079 37.0677 163.436 37.7757 162.622 38.4756C161.825 39.1592 160.897 39.8428 159.839 40.5264C158.781 41.1937 157.666 41.8854 156.494 42.6016C156.608 43.4479 156.803 44.221 157.08 44.9209C157.357 45.6045 157.707 46.1986 158.13 46.7031C158.553 47.1914 159.041 47.5739 159.595 47.8506C160.148 48.111 160.767 48.2412 161.45 48.2412ZM162.207 34.7402C162.207 34.0892 162.028 33.5765 161.67 33.2021C161.328 32.8278 160.905 32.6406 160.4 32.6406C159.977 32.6406 159.53 32.7952 159.058 33.1045C158.586 33.3975 158.154 33.8776 157.764 34.5449C157.373 35.196 157.048 36.0342 156.787 37.0596C156.527 38.085 156.396 39.3301 156.396 40.7949V41.3564C156.95 41.0635 157.56 40.681 158.228 40.209C158.911 39.7207 159.546 39.1836 160.132 38.5977C160.718 38.0117 161.206 37.3932 161.597 36.7422C162.004 36.0749 162.207 35.4076 162.207 34.7402ZM172.144 36.0098H184.131V38.0117H172.144V36.0098Z" fill="#F9F0F0"/>
</svg>
